<mxfile host="app.diagrams.net" modified="2022-06-11T21:15:52.708Z" agent="5.0 (Windows NT 10.0; Win64; x64) AppleWebKit/537.36 (KHTML, like Gecko) Chrome/102.0.5005.115 Safari/537.36" etag="mmw4zudK5JmJIHXXMe-5" version="18.0.2" type="github">
  <diagram id="17-eGFFd3otrXOS_a-m_" name="Page-1">
    <mxGraphModel dx="1182" dy="582" grid="1" gridSize="10" guides="1" tooltips="1" connect="1" arrows="1" fold="1" page="1" pageScale="1" pageWidth="827" pageHeight="1169" math="0" shadow="0">
      <root>
        <mxCell id="0" />
        <mxCell id="1" parent="0" />
        <mxCell id="WM-Q9pHk27Ho9oo_VKR--1" value="ResponsableInst" style="swimlane;fontStyle=1;align=center;verticalAlign=top;childLayout=stackLayout;horizontal=1;startSize=26;horizontalStack=0;resizeParent=1;resizeParentMax=0;resizeLast=0;collapsible=1;marginBottom=0;" parent="1" vertex="1">
          <mxGeometry x="10" y="10" width="160" height="86" as="geometry" />
        </mxCell>
        <mxCell id="WM-Q9pHk27Ho9oo_VKR--2" value="+ field: type" style="text;strokeColor=none;fillColor=none;align=left;verticalAlign=top;spacingLeft=4;spacingRight=4;overflow=hidden;rotatable=0;points=[[0,0.5],[1,0.5]];portConstraint=eastwest;" parent="WM-Q9pHk27Ho9oo_VKR--1" vertex="1">
          <mxGeometry y="26" width="160" height="26" as="geometry" />
        </mxCell>
        <mxCell id="WM-Q9pHk27Ho9oo_VKR--3" value="" style="line;strokeWidth=1;fillColor=none;align=left;verticalAlign=middle;spacingTop=-1;spacingLeft=3;spacingRight=3;rotatable=0;labelPosition=right;points=[];portConstraint=eastwest;" parent="WM-Q9pHk27Ho9oo_VKR--1" vertex="1">
          <mxGeometry y="52" width="160" height="8" as="geometry" />
        </mxCell>
        <mxCell id="WM-Q9pHk27Ho9oo_VKR--4" value="+ method(type): type" style="text;strokeColor=none;fillColor=none;align=left;verticalAlign=top;spacingLeft=4;spacingRight=4;overflow=hidden;rotatable=0;points=[[0,0.5],[1,0.5]];portConstraint=eastwest;" parent="WM-Q9pHk27Ho9oo_VKR--1" vertex="1">
          <mxGeometry y="60" width="160" height="26" as="geometry" />
        </mxCell>
        <mxCell id="WM-Q9pHk27Ho9oo_VKR--5" value="Turno" style="swimlane;fontStyle=1;align=center;verticalAlign=top;childLayout=stackLayout;horizontal=1;startSize=26;horizontalStack=0;resizeParent=1;resizeParentMax=0;resizeLast=0;collapsible=1;marginBottom=0;" parent="1" vertex="1">
          <mxGeometry x="10" y="110" width="160" height="202" as="geometry" />
        </mxCell>
        <mxCell id="WM-Q9pHk27Ho9oo_VKR--6" value="- hora: Stiring&#xa;- fecha: LocalDate&#xa;- medico: Medico&#xa;- paciente: Paciente" style="text;strokeColor=none;fillColor=none;align=left;verticalAlign=top;spacingLeft=4;spacingRight=4;overflow=hidden;rotatable=0;points=[[0,0.5],[1,0.5]];portConstraint=eastwest;" parent="WM-Q9pHk27Ho9oo_VKR--5" vertex="1">
          <mxGeometry y="26" width="160" height="94" as="geometry" />
        </mxCell>
        <mxCell id="WM-Q9pHk27Ho9oo_VKR--7" value="" style="line;strokeWidth=1;fillColor=none;align=left;verticalAlign=middle;spacingTop=-1;spacingLeft=3;spacingRight=3;rotatable=0;labelPosition=right;points=[];portConstraint=eastwest;" parent="WM-Q9pHk27Ho9oo_VKR--5" vertex="1">
          <mxGeometry y="120" width="160" height="8" as="geometry" />
        </mxCell>
        <mxCell id="WM-Q9pHk27Ho9oo_VKR--8" value="+ getters y setters" style="text;strokeColor=none;fillColor=none;align=left;verticalAlign=top;spacingLeft=4;spacingRight=4;overflow=hidden;rotatable=0;points=[[0,0.5],[1,0.5]];portConstraint=eastwest;" parent="WM-Q9pHk27Ho9oo_VKR--5" vertex="1">
          <mxGeometry y="128" width="160" height="74" as="geometry" />
        </mxCell>
        <mxCell id="WM-Q9pHk27Ho9oo_VKR--9" value="Medico" style="swimlane;fontStyle=1;align=center;verticalAlign=top;childLayout=stackLayout;horizontal=1;startSize=26;horizontalStack=0;resizeParent=1;resizeParentMax=0;resizeLast=0;collapsible=1;marginBottom=0;" parent="1" vertex="1">
          <mxGeometry x="180" y="140" width="160" height="90" as="geometry" />
        </mxCell>
        <mxCell id="WM-Q9pHk27Ho9oo_VKR--10" value="- turnos: List&lt;Turno&gt;" style="text;strokeColor=none;fillColor=none;align=left;verticalAlign=top;spacingLeft=4;spacingRight=4;overflow=hidden;rotatable=0;points=[[0,0.5],[1,0.5]];portConstraint=eastwest;" parent="WM-Q9pHk27Ho9oo_VKR--9" vertex="1">
          <mxGeometry y="26" width="160" height="24" as="geometry" />
        </mxCell>
        <mxCell id="WM-Q9pHk27Ho9oo_VKR--11" value="" style="line;strokeWidth=1;fillColor=none;align=left;verticalAlign=middle;spacingTop=-1;spacingLeft=3;spacingRight=3;rotatable=0;labelPosition=right;points=[];portConstraint=eastwest;" parent="WM-Q9pHk27Ho9oo_VKR--9" vertex="1">
          <mxGeometry y="50" width="160" height="8" as="geometry" />
        </mxCell>
        <mxCell id="WM-Q9pHk27Ho9oo_VKR--12" value="+ method(type): type" style="text;strokeColor=none;fillColor=none;align=left;verticalAlign=top;spacingLeft=4;spacingRight=4;overflow=hidden;rotatable=0;points=[[0,0.5],[1,0.5]];portConstraint=eastwest;" parent="WM-Q9pHk27Ho9oo_VKR--9" vertex="1">
          <mxGeometry y="58" width="160" height="32" as="geometry" />
        </mxCell>
        <mxCell id="WM-Q9pHk27Ho9oo_VKR--13" value="Usuario" style="swimlane;fontStyle=3;align=center;verticalAlign=top;childLayout=stackLayout;horizontal=1;startSize=26;horizontalStack=0;resizeParent=1;resizeParentMax=0;resizeLast=0;collapsible=1;marginBottom=0;" parent="1" vertex="1">
          <mxGeometry x="350" y="10" width="160" height="120" as="geometry" />
        </mxCell>
        <mxCell id="WM-Q9pHk27Ho9oo_VKR--14" value="- nombre: String&#xa;- apellido: String&#xa;- dni: int" style="text;strokeColor=none;fillColor=none;align=left;verticalAlign=top;spacingLeft=4;spacingRight=4;overflow=hidden;rotatable=0;points=[[0,0.5],[1,0.5]];portConstraint=eastwest;" parent="WM-Q9pHk27Ho9oo_VKR--13" vertex="1">
          <mxGeometry y="26" width="160" height="54" as="geometry" />
        </mxCell>
        <mxCell id="WM-Q9pHk27Ho9oo_VKR--15" value="" style="line;strokeWidth=1;fillColor=none;align=left;verticalAlign=middle;spacingTop=-1;spacingLeft=3;spacingRight=3;rotatable=0;labelPosition=right;points=[];portConstraint=eastwest;" parent="WM-Q9pHk27Ho9oo_VKR--13" vertex="1">
          <mxGeometry y="80" width="160" height="8" as="geometry" />
        </mxCell>
        <mxCell id="WM-Q9pHk27Ho9oo_VKR--16" value="+ method(type): type" style="text;strokeColor=none;fillColor=none;align=left;verticalAlign=top;spacingLeft=4;spacingRight=4;overflow=hidden;rotatable=0;points=[[0,0.5],[1,0.5]];portConstraint=eastwest;" parent="WM-Q9pHk27Ho9oo_VKR--13" vertex="1">
          <mxGeometry y="88" width="160" height="32" as="geometry" />
        </mxCell>
        <mxCell id="WM-Q9pHk27Ho9oo_VKR--17" style="edgeStyle=orthogonalEdgeStyle;rounded=0;orthogonalLoop=1;jettySize=auto;html=1;exitX=1;exitY=0.5;exitDx=0;exitDy=0;" parent="WM-Q9pHk27Ho9oo_VKR--13" source="WM-Q9pHk27Ho9oo_VKR--16" target="WM-Q9pHk27Ho9oo_VKR--16" edge="1">
          <mxGeometry relative="1" as="geometry" />
        </mxCell>
        <mxCell id="WM-Q9pHk27Ho9oo_VKR--18" value="Secretaria" style="swimlane;fontStyle=1;align=center;verticalAlign=top;childLayout=stackLayout;horizontal=1;startSize=26;horizontalStack=0;resizeParent=1;resizeParentMax=0;resizeLast=0;collapsible=1;marginBottom=0;" parent="1" vertex="1">
          <mxGeometry x="350" y="140" width="160" height="90" as="geometry" />
        </mxCell>
        <mxCell id="WM-Q9pHk27Ho9oo_VKR--19" value="- medicos: List&lt;Medico&gt;" style="text;strokeColor=none;fillColor=none;align=left;verticalAlign=top;spacingLeft=4;spacingRight=4;overflow=hidden;rotatable=0;points=[[0,0.5],[1,0.5]];portConstraint=eastwest;" parent="WM-Q9pHk27Ho9oo_VKR--18" vertex="1">
          <mxGeometry y="26" width="160" height="24" as="geometry" />
        </mxCell>
        <mxCell id="WM-Q9pHk27Ho9oo_VKR--20" value="" style="line;strokeWidth=1;fillColor=none;align=left;verticalAlign=middle;spacingTop=-1;spacingLeft=3;spacingRight=3;rotatable=0;labelPosition=right;points=[];portConstraint=eastwest;" parent="WM-Q9pHk27Ho9oo_VKR--18" vertex="1">
          <mxGeometry y="50" width="160" height="8" as="geometry" />
        </mxCell>
        <mxCell id="WM-Q9pHk27Ho9oo_VKR--21" value="+ method(type): type" style="text;strokeColor=none;fillColor=none;align=left;verticalAlign=top;spacingLeft=4;spacingRight=4;overflow=hidden;rotatable=0;points=[[0,0.5],[1,0.5]];portConstraint=eastwest;" parent="WM-Q9pHk27Ho9oo_VKR--18" vertex="1">
          <mxGeometry y="58" width="160" height="32" as="geometry" />
        </mxCell>
        <mxCell id="WM-Q9pHk27Ho9oo_VKR--22" value="Paciente" style="swimlane;fontStyle=1;align=center;verticalAlign=top;childLayout=stackLayout;horizontal=1;startSize=26;horizontalStack=0;resizeParent=1;resizeParentMax=0;resizeLast=0;collapsible=1;marginBottom=0;" parent="1" vertex="1">
          <mxGeometry x="530" y="140" width="160" height="86" as="geometry" />
        </mxCell>
        <mxCell id="WM-Q9pHk27Ho9oo_VKR--23" value="- turnos: List&lt;Turno&gt;" style="text;strokeColor=none;fillColor=none;align=left;verticalAlign=top;spacingLeft=4;spacingRight=4;overflow=hidden;rotatable=0;points=[[0,0.5],[1,0.5]];portConstraint=eastwest;" parent="WM-Q9pHk27Ho9oo_VKR--22" vertex="1">
          <mxGeometry y="26" width="160" height="26" as="geometry" />
        </mxCell>
        <mxCell id="WM-Q9pHk27Ho9oo_VKR--24" value="" style="line;strokeWidth=1;fillColor=none;align=left;verticalAlign=middle;spacingTop=-1;spacingLeft=3;spacingRight=3;rotatable=0;labelPosition=right;points=[];portConstraint=eastwest;" parent="WM-Q9pHk27Ho9oo_VKR--22" vertex="1">
          <mxGeometry y="52" width="160" height="8" as="geometry" />
        </mxCell>
        <mxCell id="WM-Q9pHk27Ho9oo_VKR--25" value="+ method(type): type" style="text;strokeColor=none;fillColor=none;align=left;verticalAlign=top;spacingLeft=4;spacingRight=4;overflow=hidden;rotatable=0;points=[[0,0.5],[1,0.5]];portConstraint=eastwest;" parent="WM-Q9pHk27Ho9oo_VKR--22" vertex="1">
          <mxGeometry y="60" width="160" height="26" as="geometry" />
        </mxCell>
        <mxCell id="PoABos5-2EtVQ2rNMuKD-1" value="Sexo&#xa;" style="swimlane;fontStyle=1;align=center;verticalAlign=top;childLayout=stackLayout;horizontal=1;startSize=26;horizontalStack=0;resizeParent=1;resizeParentMax=0;resizeLast=0;collapsible=1;marginBottom=0;" vertex="1" parent="1">
          <mxGeometry x="270" y="320" width="160" height="202" as="geometry" />
        </mxCell>
        <mxCell id="PoABos5-2EtVQ2rNMuKD-2" value="- hora: Stiring&#xa;- fecha: LocalDate&#xa;- medico: Medico&#xa;- paciente: Paciente" style="text;strokeColor=none;fillColor=none;align=left;verticalAlign=top;spacingLeft=4;spacingRight=4;overflow=hidden;rotatable=0;points=[[0,0.5],[1,0.5]];portConstraint=eastwest;" vertex="1" parent="PoABos5-2EtVQ2rNMuKD-1">
          <mxGeometry y="26" width="160" height="94" as="geometry" />
        </mxCell>
        <mxCell id="PoABos5-2EtVQ2rNMuKD-3" value="" style="line;strokeWidth=1;fillColor=none;align=left;verticalAlign=middle;spacingTop=-1;spacingLeft=3;spacingRight=3;rotatable=0;labelPosition=right;points=[];portConstraint=eastwest;" vertex="1" parent="PoABos5-2EtVQ2rNMuKD-1">
          <mxGeometry y="120" width="160" height="8" as="geometry" />
        </mxCell>
        <mxCell id="PoABos5-2EtVQ2rNMuKD-4" value="+ getters y setters" style="text;strokeColor=none;fillColor=none;align=left;verticalAlign=top;spacingLeft=4;spacingRight=4;overflow=hidden;rotatable=0;points=[[0,0.5],[1,0.5]];portConstraint=eastwest;" vertex="1" parent="PoABos5-2EtVQ2rNMuKD-1">
          <mxGeometry y="128" width="160" height="74" as="geometry" />
        </mxCell>
      </root>
    </mxGraphModel>
  </diagram>
</mxfile>
